<svg width="10" height="10" viewBox="0 0 10 10" fill="none" xmlns="http://www.w3.org/2000/svg">
<path fill-rule="evenodd" clip-rule="evenodd" d="M9.28586 9.28586C8.89145 9.68027 8.25199 9.68027 7.85758 9.28586L5 6.42828L2.14242 9.28586C1.74801 9.68027 1.10855 9.68027 0.714141 9.28586C0.319732 8.89145 0.319732 8.25199 0.714142 7.85758L3.57172 5L0.714141 2.14242C0.319731 1.74801 0.319732 1.10855 0.714141 0.714141C1.10855 0.319732 1.74801 0.319732 2.14242 0.714142L5 3.57172L7.85758 0.714141C8.25199 0.319731 8.89145 0.319732 9.28586 0.714141C9.68027 1.10855 9.68027 1.74801 9.28586 2.14242L6.42828 5L9.28586 7.85758C9.68027 8.25199 9.68027 8.89145 9.28586 9.28586Z" fill="#475284"/>
</svg>
